# xmcd
#
# Track frame offsets:
#	150
#	17284
#	31727
#	52793
#	67907
#	86626
#	107941
#	124717
#
# Disc length: 1921 seconds
#
# Revision: 0
# Processed by: cddbd v1.5.2PL0 Copyright (c) Steve Scherf et al.
# Submitted via: EasyCDDAExtractor 12.0.1.1
#
DISCID=54077f08
DTITLE=Apolonia - Kossa i dit
DYEAR=2011
DGENRE=Séga
TTITLE0=Kossa i dit
TTITLE1=malé rodé
TTITLE2=Zancèt
TTITLE3=Mon ker i frisonne
TTITLE4=In gorzé d'lo
TTITLE5=ma suive out sillon
TTITLE6=viens dans mon ile
TTITLE7=mon idéal
EXTD=
EXTT0=
EXTT1=
EXTT2=
EXTT3=
EXTT4=
EXTT5=
EXTT6=
EXTT7=
PLAYORDER=
